{"title":"The Canyons 2013 720p WEB-DL H264-KiNGS","uid":8774019,"size":3189212963,"categoryP":"video","categoryS":"hd___movies","magnet":"?xt=urn:btih:513698e19f64ccb9033eea51e06a320430368d81&amp;dn=The+Canyons+2013+720p+WEB-DL+H264-KiNGS&amp;tr=udp%3A%2F%2Ftracker.openbittorrent.com%3A80&amp;tr=udp%3A%2F%2Fopen.demonii.com%3A1337&amp;tr=udp%3A%2F%2Ftracker.coppersurfer.tk%3A6969&amp;tr=udp%3A%2F%2Fexodus.desync.com%3A6969","seeders":3,"leechers":2,"uploader":"srkfan","files":2,"time":1375509242,"description":"[b]SilverTorrent - Clean And Verified Torrents Download[/b]\n\n------------------------------------------------------\n &lt;a href=&quot;\nhttp://img534.imageshack.us/img534/9241/lg28.jpg&quot; rel=&quot;nofollow&quot; target=&quot;_NEW&quot;&gt;\nhttp://img534.imageshack.us/img534/9241/lg28.jpg&lt;/a&gt;\n &lt;a href=&quot;\nhttp://www.imdb.com/title/tt2292959&quot; rel=&quot;nofollow&quot; target=&quot;_NEW&quot;&gt;\nhttp://www.imdb.com/title/tt2292959&lt;/a&gt;\nFormat                                   : Matroska\nFormat version                           : Version 4 / Version 2\nFile size                                : 2.97 GiB\nDuration                                 : 1h 39mn\nOverall bit rate                         : 4 269 Kbps\n\nVideo\nFormat/Info                              : Advanced Video Codec\nFormat profile                           : &lt;a class=&quot;__cf_email__&quot; href=&quot;/cdn-cgi/l/email-protection&quot; data-cfemail=&quot;b1fcd0d8dff1fd829f80&quot;&gt;[email&amp;#160;protected]&lt;/a&gt;&lt;script cf-hash='f9e31' type=&quot;text/javascript&quot;&gt;\n/* &lt;![CDATA[ */!function(){try{var t=&quot;currentScript&quot;in document?document.currentScript:function(){for(var t=document.getElementsByTagName(&quot;script&quot;),e=t.length;e--;)if(t[e].getAttribute(&quot;cf-hash&quot;))return t[e]}();if(t&amp;&amp;t.previousSibling){var e,r,n,i,c=t.previousSibling,a=c.getAttribute(&quot;data-cfemail&quot;);if(a){for(e=&quot;&quot;,r=parseInt(a.substr(0,2),16),n=2;a.length-n;n+=2)i=parseInt(a.substr(n,2),16)^r,e+=String.fromCharCode(i);e=document.createTextNode(e),c.parentNode.replaceChild(e,c)}}}catch(u){}}();/* ]]&gt; */&lt;/script&gt;\nFormat settings, CABAC                   : No\nFormat settings, ReFrames                : 2 frames\nFormat settings, GOP                     : M=2, N=68\nCodec ID                                 : V_MPEG4/ISO/AVC\nDuration                                 : 1h 39mn\nBit rate                                 : 3 800 Kbps\nWidth                                    : 1 280 pixels\nHeight                                   : 540 pixels\nDisplay aspect ratio                     : 2.40:1\nFrame rate mode                          : Constant\nFrame rate                               : 23.976 fps\nColor space                              : YUV\nChroma subsampling                       : 4:2:0\nBit depth                                : 8 bits\nScan type                                : Progressive\nBits/(Pixel*Frame)                       : 0.229\nStream size                              : 2.64 GiB (89%)\nLanguage                                 : English\nDefault                                  : Yes\nForced                                   : No\nColor primaries                          : BT.709\nTransfer characteristics                 : BT.709\nMatrix coefficients                      : BT.709\n\nAudio\nID                                       : 2\nFormat                                   : AC-3\nFormat/Info                              : Audio Coding 3\nMode extension                           : CM (complete main)\nFormat settings, Endianness              : Big\nCodec ID                                 : A_AC3\nDuration                                 : 1h 39mn\nBit rate mode                            : Constant\nBit rate                                 : 384 Kbps\nChannel(s)                               : 6 channels\nChannel positions                        : Front: L C R, Side: L R, LFE\nSampling rate                            : 48.0 KHz\nBit depth                                : 16 bits\nCompression mode                         : Lossy\nStream size                              : 274 MiB (9%)\nLanguage                                 : English\nDefault                                  : Yes\nForced                                   : No\n\nText\nID                                       : 3\nFormat                                   : UTF-8\nCodec ID                                 : S_TEXT/UTF8\nCodec ID/Info                            : UTF-8 Plain Text\nDefault                                  : Yes\nForced                                   : No\n &lt;a href=&quot;\nhttp://img19.imageshack.us/img19/2238/wkc9.png&quot; rel=&quot;nofollow&quot; target=&quot;_NEW&quot;&gt;\nhttp://img19.imageshack.us/img19/2238/wkc9.png&lt;/a&gt; &lt;a href=&quot;\nhttp://img198.imageshack.us/img198/1008/2aqt.png&quot; rel=&quot;nofollow&quot; target=&quot;_NEW&quot;&gt;\nhttp://img198.imageshack.us/img198/1008/2aqt.png&lt;/a&gt; &lt;a href=&quot;\nhttp://img822.imageshack.us/img822/2769/ah0x.png&quot; rel=&quot;nofollow&quot; target=&quot;_NEW&quot;&gt;\nhttp://img822.imageshack.us/img822/2769/ah0x.png&lt;/a&gt; &lt;a href=&quot;\nhttp://img854.imageshack.us/img854/3219/e7zt.png&quot; rel=&quot;nofollow&quot; target=&quot;_NEW&quot;&gt;\nhttp://img854.imageshack.us/img854/3219/e7zt.png&lt;/a&gt; &lt;a href=&quot;\nhttp://img844.imageshack.us/img844/7606/kdy8.png&quot; rel=&quot;nofollow&quot; target=&quot;_NEW&quot;&gt;\nhttp://img844.imageshack.us/img844/7606/kdy8.png&lt;/a&gt;\n","torrent":{"xt":"urn:btih:513698e19f64ccb9033eea51e06a320430368d81","amp;dn":"The+Canyons+2013+720p+WEB-DL+H264-KiNGS","amp;tr":["udp%3A%2F%2Ftracker.openbittorrent.com%3A80","udp%3A%2F%2Fopen.demonii.com%3A1337","udp%3A%2F%2Ftracker.coppersurfer.tk%3A6969","udp%3A%2F%2Fexodus.desync.com%3A6969"],"infoHash":"513698e19f64ccb9033eea51e06a320430368d81","infoHashBuffer":{"type":"Buffer","data":[81,54,152,225,159,100,204,185,3,62,234,81,224,106,50,4,48,54,141,129]},"announce":[],"urlList":[]}}